<?xml version="1.0" encoding="UTF-8"?>
<svg version="1.1" xmlns="http://www.w3.org/2000/svg" width="240" height="240">
<path d="M0 0 C3.6578218 2.03993908 5.66946174 3.50419262 8 7 C8.64152472 11.67396579 8.0987937 14.18211889 5.4375 17.9375 C4.96183594 18.52402344 4.48617187 19.11054688 3.99609375 19.71484375 C2.47992576 23.19311149 3.03584066 26.43316354 4 30 C6.02092284 33.00238223 6.02092284 33.00238223 8.8359375 35.58300781 C9.33856613 36.08183975 9.84119476 36.58067169 10.35905457 37.09461975 C12.01542835 38.73092009 13.69485008 40.34127982 15.375 41.953125 C16.54203114 43.09943982 17.70728635 44.24756518 18.87084961 45.3973999 C21.93684938 48.41975673 25.02190262 51.42182941 28.112854 54.41864014 C33.03461313 59.19490659 37.93098117 63.99697801 42.81939697 68.8073349 C44.51378278 70.46788075 46.21867949 72.11699028 47.92529297 73.76495361 C65.02583893 90.41647025 77.6786084 110.51551207 78.29199219 135.11499023 C78.38176454 145.00811693 76.93099048 153.57385291 74 163 C73.72285156 163.97324219 73.44570312 164.94648438 73.16015625 165.94921875 C66.90759284 185.68657329 51.07287102 201.3662521 33.125 210.8125 C13.26574413 220.30178967 -7.18949106 221.47087331 -28 215 C-28.97324219 214.72285156 -29.94648437 214.44570312 -30.94921875 214.16015625 C-50.68657329 207.90759284 -66.3662521 192.07287102 -75.8125 174.125 C-85.30178967 154.26574413 -86.47087331 133.81050894 -80 113 C-79.72285156 112.02675781 -79.44570312 111.05351563 -79.16015625 110.05078125 C-72.90759284 90.31342671 -57.07287102 74.6337479 -39.125 65.1875 C-27.12720484 59.50433387 -15.07224237 57.2902473 -2 56 C-2.73605469 55.29875 -3.47210938 54.5975 -4.23046875 53.875 C-12.13786833 46.22982871 -18.98565636 39.51221753 -19.34326172 27.8425293 C-19.4639665 18.69589257 -19.05117361 11.28582471 -12.40234375 4.328125 C-8.25435694 0.69991049 -5.48679121 -0.52757608 0 0 Z M-50 101 C-60.23184797 113.98101116 -63.69828122 129.23868711 -62.32958984 145.49072266 C-60.76178606 157.42693545 -55.98492403 167.99991485 -48 177 C-47.37222656 177.72445312 -46.74445313 178.44890625 -46.09765625 179.1953125 C-35.38993294 190.71323165 -21.23826911 196.85087409 -5.65771484 197.64282227 C10.00051129 197.91903736 24.18158817 193.48535865 36 183 C37.08667969 182.05833984 37.08667969 182.05833984 38.1953125 181.09765625 C49.71323165 170.38993294 55.85087409 156.23826911 56.64282227 140.65771484 C56.91903736 124.99948871 52.48535865 110.81841183 42 99 C41.05833984 97.91332031 41.05833984 97.91332031 40.09765625 96.8046875 C29.36402834 85.25890369 15.18345965 79.09617021 -0.44360352 78.40795898 C-20.33718465 78.15147599 -36.98728254 85.65552392 -50 101 Z " fill="#BF7D93" transform="translate(123,12)"/>
<path d="M0 0 C7.25934038 6.62753278 12.33864541 14.70341577 13.23828125 24.62890625 C13.51982596 35.75733118 10.55616544 44.73544405 3 53 C-3.93955901 60.18978349 -12.58127764 64.05997906 -22.5625 64.3125 C-33.49819893 64.19262023 -41.93269098 59.85614978 -49.68359375 52.375 C-56.87807639 44.62433541 -59.39099142 35.5976621 -59.27734375 25.23046875 C-58.40315418 15.04800712 -53.36620213 7.36620213 -46.3125 0.3125 C-32.16823507 -10.72601364 -14.31152424 -10.36618513 0 0 Z M-35.875 20.125 C-37.56484251 24.44348642 -37.65960983 28.4267052 -37 33 C-34.83701163 37.40608743 -32.60319521 40.1987497 -28 42 C-22.95674616 42.68426057 -19.16923116 42.5739862 -14.5625 40.3125 C-11.20343988 37.28115306 -9.30644369 35.25860352 -8.68359375 30.66796875 C-8.41786348 24.95048191 -9.03152848 21.39749547 -13 17 C-16.83713196 13.61429533 -20.63401462 13.48708828 -25.5625 13.6484375 C-30.22526146 14.32095117 -32.85190292 16.69882331 -35.875 20.125 Z " fill="#BB7C9B" transform="translate(143,122)"/>
<path d="M0 0 C0.66 0.33 1.32 0.66 2 1 C1.09636719 1.89203125 0.19273438 2.7840625 -0.73828125 3.703125 C-1.92982079 4.88528234 -3.12121966 6.06758147 -4.3125 7.25 C-4.90740234 7.83652344 -5.50230469 8.42304687 -6.11523438 9.02734375 C-8.98243668 11.87852816 -11.70386543 14.65112504 -14 18 C-14.66 17.67 -15.32 17.34 -16 17 C-14.27672364 14.91154598 -12.54674596 12.82931416 -10.8125 10.75 C-10.32974609 10.16347656 -9.84699219 9.57695313 -9.34960938 8.97265625 C-6.48468648 5.55013092 -3.61441174 2.66951068 0 0 Z " fill="#B56E52" transform="translate(69,87)"/>
<path d="M0 0 C-1.55603771 3.81936528 -3.95604931 6.26044438 -7 9 C-7.66 9 -8.32 9 -9 9 C-7.45665977 5.21180126 -4.44676575 0 0 0 Z " fill="#976061" transform="translate(100,121)"/>
</svg>
